<svg width="24" height="24" viewBox="0 0 24 24" fill="none" xmlns="http://www.w3.org/2000/svg">
<g clip-path="url(#clip0_6707_25802)">
<path d="M18.0004 3V4H24.0004V6H18.0004V8H24.0004V10H18.0004V12H24.0004V14H18.0004V16H24.0004V18H18.0004V24H16.0004V3C16.0004 2.20435 16.3165 1.44129 16.8791 0.87868C17.4417 0.316071 18.2048 0 19.0004 0L24.0004 0V2H19.0004C18.7352 2 18.4808 2.10536 18.2933 2.29289C18.1058 2.48043 18.0004 2.73478 18.0004 3ZM14.0004 20C14.004 20.8144 13.7579 21.6103 13.2952 22.2805C12.8325 22.9507 12.1755 23.463 11.4127 23.7483C10.6499 24.0336 9.81798 24.0782 9.02905 23.8761C8.24012 23.674 7.5321 23.2349 7.00041 22.618C6.58121 23.1002 6.05232 23.4746 5.45825 23.7098C4.86418 23.945 4.2223 24.034 3.58664 23.9694C2.95099 23.9048 2.34015 23.6885 1.80554 23.3386C1.27092 22.9887 0.828181 22.5155 0.514567 21.9588C0.200953 21.4022 0.0256444 20.7783 0.00339599 20.1398C-0.0188524 19.5012 0.11261 18.8667 0.386719 18.2895C0.660829 17.7124 1.06956 17.2095 1.57853 16.8233C2.08749 16.437 2.68179 16.1787 3.31141 16.07L5.91241 10L4.26341 6.151C3.42791 4.20807 2.99813 2.11495 3.00041 0L5.00041 0C4.99786 1.84426 5.37218 3.6696 6.10041 5.364L7.00041 7.464L7.90041 5.364C8.62864 3.6696 9.00296 1.84426 9.00041 0H11.0004C11.0027 2.11495 10.5729 4.20807 9.73741 6.151L8.08841 10L10.6884 16.07C11.6142 16.2316 12.4535 16.7141 13.0591 17.4327C13.6647 18.1513 13.998 19.0602 14.0004 20ZM6.00041 20C6.00041 19.6044 5.88311 19.2178 5.66335 18.8889C5.44359 18.56 5.13123 18.3036 4.76578 18.1522C4.40032 18.0009 3.99819 17.9613 3.61023 18.0384C3.22227 18.1156 2.8659 18.3061 2.5862 18.5858C2.30649 18.8655 2.11601 19.2219 2.03884 19.6098C1.96167 19.9978 2.00128 20.3999 2.15265 20.7654C2.30403 21.1308 2.56037 21.4432 2.88927 21.6629C3.21817 21.8827 3.60485 22 4.00041 22C4.53084 22 5.03955 21.7893 5.41462 21.4142C5.7897 21.0391 6.00041 20.5304 6.00041 20ZM7.00041 17.382C7.43305 16.8834 7.98288 16.5003 8.60041 16.267L7.00041 12.538L5.40041 16.267C6.01794 16.5003 6.56777 16.8834 7.00041 17.382ZM12.0004 20C12.0004 19.6044 11.8831 19.2178 11.6633 18.8889C11.4436 18.56 11.1312 18.3036 10.7658 18.1522C10.4003 18.0009 9.99819 17.9613 9.61023 18.0384C9.22227 18.1156 8.8659 18.3061 8.5862 18.5858C8.30649 18.8655 8.11601 19.2219 8.03884 19.6098C7.96167 19.9978 8.00128 20.3999 8.15265 20.7654C8.30402 21.1308 8.56037 21.4432 8.88927 21.6629C9.21817 21.8827 9.60485 22 10.0004 22C10.5308 22 11.0395 21.7893 11.4146 21.4142C11.7897 21.0391 12.0004 20.5304 12.0004 20Z" fill="#E2E7EA"/>
</g>
<defs>
<clipPath id="clip0_6707_25802">
<rect width="24" height="24" fill="white"/>
</clipPath>
</defs>
</svg>
