<svg width="21" height="21" viewBox="0 0 21 21" fill="none" xmlns="http://www.w3.org/2000/svg">
<g clip-path="url(#clip0_6725_16953)">
<path d="M2.64023 8.31679C2.40692 8.46082 2.19894 8.57878 2.00258 8.71252C1.19457 9.26532 0.254517 8.76122 0.0472127 7.86481C-0.114936 7.16525 0.145734 6.55141 0.749858 6.16391C3.88269 4.15574 7.01688 2.14963 10.1436 0.131868C10.4022 -0.0354793 10.5896 -0.0478246 10.8537 0.122952C13.9879 2.14552 17.1296 4.15574 20.2679 6.17145C21.0315 6.66252 21.2271 7.66454 20.7113 8.39292C20.3165 8.95051 19.6488 9.09385 19.0638 8.74476C18.8319 8.60621 18.6027 8.46424 18.3461 8.30787V17.9783C18.604 17.9783 18.864 17.977 19.1247 17.9783C19.4223 17.9811 19.5044 18.0606 19.5051 18.359C19.5071 19.112 19.5071 19.8651 19.5051 20.6182C19.5044 20.9131 19.4196 20.9988 19.1226 20.9988C13.3694 20.9995 7.61622 20.9995 1.86301 20.9988C1.58113 20.9988 1.49082 20.911 1.48945 20.6339C1.48603 19.872 1.48603 19.1107 1.48945 18.3487C1.49082 18.0648 1.57634 17.9818 1.85617 17.9783C2.11136 17.9756 2.36656 17.9783 2.63954 17.9783V8.31679H2.64023ZM17.8145 13.853C17.8145 13.7439 17.8145 13.6589 17.8145 13.5745C17.8145 11.7947 17.8111 10.0149 17.8193 8.23517C17.82 8.04108 17.7646 7.93203 17.5969 7.82915C15.2954 6.40807 12.9979 4.98013 10.7025 3.54877C10.5629 3.46166 10.4651 3.44863 10.3166 3.54191C8.00825 4.98425 5.69574 6.41973 3.3805 7.85178C3.23135 7.94437 3.1773 8.04382 3.17799 8.21871C3.18414 10.0074 3.18141 11.7954 3.18209 13.5841C3.18209 13.674 3.18962 13.7638 3.19441 13.8653H6.84994C6.88894 11.471 8.7191 10.1405 10.4035 10.0876C12.0332 10.0362 14.1206 11.3167 14.1549 13.8536H17.8145V13.853ZM20.4746 7.48965C20.454 7.07334 20.27 6.78872 19.9306 6.57199C16.8601 4.60977 13.7929 2.64207 10.7292 0.668202C10.5582 0.55778 10.4453 0.561209 10.277 0.670259C8.10472 2.07282 5.92699 3.46784 3.75064 4.86422C2.81674 5.46366 1.88011 6.05829 0.950321 6.66321C0.511082 6.94852 0.394772 7.60419 0.68623 8.05411C0.953742 8.46699 1.32046 8.515 1.83359 8.19676C4.61817 6.46911 7.40344 4.74283 10.1819 3.00626C10.42 2.85743 10.5951 2.85949 10.8311 3.00832C12.3767 3.98085 13.9311 4.93967 15.4822 5.9026C16.7581 6.69475 18.0334 7.48828 19.3108 8.27769C19.6344 8.47796 19.8951 8.45739 20.1557 8.22831C20.3842 8.02804 20.4602 7.76262 20.4752 7.48897L20.4746 7.48965ZM13.6055 17.966C13.6055 16.5833 13.6055 15.2322 13.6055 13.8811C13.6055 13.7617 13.6048 13.641 13.5932 13.5224C13.4009 11.591 11.7315 10.3188 9.86988 10.6823C8.45501 10.9587 7.41781 12.2248 7.39865 13.7384C7.38155 15.082 7.39454 16.4256 7.39591 17.7692C7.39591 17.8336 7.41028 17.8974 7.41917 17.9653H13.6068L13.6055 17.966ZM2.03473 20.4522H18.9851V18.5256H2.03473V20.4522ZM6.85405 14.4023H3.2033V17.9619H6.85336V14.4023H6.85405ZM14.1364 17.9557H17.8015V14.4023H14.1364V17.9557Z" fill="#CAC6E1"/>
<path d="M10.472 8.85632C9.7132 8.85632 8.95377 8.85769 8.19503 8.85632C7.85636 8.85563 7.78589 8.78499 7.78521 8.45304C7.78384 7.80285 7.78384 7.15335 7.78521 6.50317C7.78589 6.18013 7.85773 6.10675 8.17176 6.10675C9.72415 6.10606 11.2759 6.10538 12.8282 6.10675C13.1163 6.10675 13.1984 6.18494 13.1997 6.46682C13.2032 7.14238 13.2032 7.81794 13.1997 8.4935C13.1984 8.77264 13.1149 8.85426 12.8262 8.85563C12.0414 8.85906 11.2567 8.857 10.4726 8.857L10.472 8.85632ZM12.6586 8.3145V6.6424H8.33118V8.3145H12.6586Z" fill="#CAC6E1"/>
</g>
<defs>
<clipPath id="clip0_6725_16953">
<rect width="21" height="21" fill="white"/>
</clipPath>
</defs>
</svg>
