<svg width="21" height="20" viewBox="0 0 21 20" fill="none" xmlns="http://www.w3.org/2000/svg">
<g clip-path="url(#clip0_1660_2060)">
<path d="M2.37011 19.1513C2.09151 19.1513 1.82045 19.1529 1.55007 19.1513C0.604762 19.1435 0.00171127 18.4542 0.00102676 17.3732C-0.000342254 12.9407 -0.000342254 8.50902 0.00102676 4.07654C0.00102676 2.9729 0.595864 2.30231 1.56855 2.29997C1.8314 2.29997 2.09425 2.29997 2.38448 2.29997C3.39276 2.29997 3.52008 2.29997 3.88629 2.29997C4.32574 2.29997 3.8815 2.29685 5.51268 2.29997H15.5578C16.3929 2.29997 16.2464 2.29841 17.0802 2.29997C17.3437 2.29997 17.8482 2.29997 18.6073 2.29997C18.8989 2.29997 19.1686 2.29997 19.4376 2.29997C20.4062 2.30231 20.9997 2.9768 20.9997 4.08355C21.001 8.5059 21.001 12.9283 20.9997 17.3506C20.9997 18.4675 20.4007 19.1467 19.4184 19.1513C19.1631 19.1521 18.9071 19.1513 18.623 19.1513M10.5164 2.8919C7.5532 2.8919 4.58928 2.8919 1.62605 2.8919C0.873089 2.8919 0.527413 3.28055 0.526728 4.13418C0.526728 8.52693 0.526728 12.9197 0.526728 17.3124C0.526728 18.1513 0.873089 18.5493 1.60551 18.5493C7.53266 18.5493 13.4598 18.5493 19.3863 18.5493C20.1228 18.5493 20.4726 18.1544 20.4726 17.321C20.4733 12.9283 20.4733 8.5355 20.4726 4.14275C20.4726 3.28367 20.129 2.8919 19.3808 2.8919C16.4258 2.8919 13.4708 2.8919 10.5157 2.8919H10.5164ZM4.90005 19.163H2.93277Z" fill="#CAC6E1"/>
<path d="M17.1045 10.8884C17.8739 12.0917 17.969 13.1104 17.4125 14.1268C16.9121 15.0412 15.9819 15.5023 15.0291 15.3076C14.0892 15.116 13.4095 14.2935 13.1836 13.0559H7.82257C7.58574 14.3574 6.92245 15.19 5.74099 15.3356C4.80321 15.4509 4.04204 15.0031 3.56836 14.0708C2.99611 12.9445 3.16587 11.8752 3.9024 10.8876C3.56699 10.4701 3.33358 9.99579 3.26718 9.42644C3.09947 7.99179 3.89966 6.73393 5.15094 6.4699C6.32693 6.22222 7.49607 7.10934 7.76302 8.4778C7.80889 8.71145 7.89239 8.74261 8.06694 8.74183C9.68923 8.73638 11.3115 8.73638 12.9338 8.74183C13.1104 8.74183 13.1925 8.70912 13.237 8.47624C13.439 7.40219 14.2214 6.59763 15.1612 6.45432C16.0996 6.31101 17.023 6.84531 17.481 7.79552C17.9389 8.74572 17.8342 9.88597 17.2126 10.7357C17.175 10.7871 17.1394 10.8385 17.1045 10.8884ZM17.2339 12.7498C17.2304 12.1306 17.0182 11.622 16.611 11.2139C16.3604 10.9631 16.3611 10.8245 16.6034 10.5815C17.2318 9.95217 17.4125 9.00742 17.0634 8.17716C16.728 7.37883 15.9484 6.90606 15.2077 7.05327C14.3788 7.21683 13.8031 7.9139 13.7128 8.86255C13.671 9.30338 13.6293 9.34622 13.2343 9.347C11.4073 9.347 9.58039 9.347 7.75344 9.347C7.37422 9.347 7.32905 9.29949 7.28934 8.87657C7.1983 7.91001 6.61853 7.20748 5.78069 7.04937C5.051 6.91229 4.27751 7.38116 3.94279 8.1647C3.5889 8.99262 3.76687 9.94594 4.39046 10.5714C4.63962 10.8206 4.64167 10.9592 4.40072 11.2069C3.76139 11.8635 3.58479 12.8059 3.94621 13.6362C4.29873 14.4462 5.07086 14.8831 5.86694 14.7235C6.62948 14.57 7.20173 13.8379 7.29003 12.9009C7.33041 12.4694 7.36122 12.4383 7.75549 12.4383C9.56533 12.4383 11.3752 12.4383 13.185 12.4383C13.5044 12.4383 13.6817 12.6169 13.7169 12.9741C13.8195 14.0163 14.6225 14.806 15.5294 14.7569C16.4939 14.7048 17.2339 13.8332 17.2339 12.7498Z" fill="#CAC6E1"/>
<path d="M14.1451 2.85529H6.90369C6.75241 2.85529 6.62988 2.71588 6.62988 2.54375V0.820137C6.62988 0.367621 6.95297 0 7.35067 0H13.6981C14.0958 0 14.4189 0.367621 14.4189 0.820137V2.54375C14.4189 2.71588 14.2964 2.85529 14.1451 2.85529ZM7.17749 2.23221H13.8713V0.820137C13.8713 0.711876 13.7939 0.623086 13.6981 0.623086H7.35067C7.25552 0.623086 7.17749 0.711097 7.17749 0.820137V2.23221V2.23221Z" fill="#CAC6E1"/>
</g>
<defs>
<clipPath id="clip0_1660_2060">
<rect width="21" height="19.1739" fill="white"/>
</clipPath>
</defs>
</svg>
