<svg width="25" height="24" viewBox="0 0 25 24" fill="none" xmlns="http://www.w3.org/2000/svg">
<path d="M12.1208 24C9.72354 24 7.38011 23.2962 5.38685 21.9776C3.3936 20.6591 1.84004 18.7849 0.922647 16.5922C0.00525177 14.3995 -0.234781 11.9867 0.232903 9.65892C0.700587 7.33115 1.85498 5.19295 3.55011 3.51472C5.24523 1.83649 7.40495 0.693605 9.75616 0.230582C12.1074 -0.232441 14.5445 0.00519943 16.7592 0.913451C18.974 1.8217 20.867 3.35977 22.1989 5.33316C23.5307 7.30655 24.2416 9.62663 24.2416 12C24.2381 15.1815 22.96 18.2318 20.6877 20.4815C18.4153 22.7312 15.3344 23.9966 12.1208 24ZM12.1208 2.00001C10.1231 2.00001 8.17023 2.5865 6.50918 3.68531C4.84813 4.78412 3.5535 6.34591 2.78901 8.17317C2.02451 10.0004 1.82448 12.0111 2.21422 13.9509C2.60396 15.8907 3.56595 17.6725 4.97856 19.0711C6.39116 20.4696 8.19093 21.422 10.1503 21.8079C12.1096 22.1937 14.1405 21.9957 15.9862 21.2388C17.8318 20.4819 19.4093 19.2002 20.5192 17.5557C21.6291 15.9112 22.2215 13.9778 22.2215 12C22.2185 9.34873 21.1534 6.80689 19.2598 4.93215C17.3662 3.05742 14.7988 2.00292 12.1208 2.00001Z" fill="#E2E7EA"/>
<path d="M8.02676 15.598L6.95508 13.902L11.1105 11.325V6H13.1306V12.433L8.02676 15.598Z" fill="#E2E7EA"/>
</svg>
