<svg width="26" height="24" viewBox="0 0 26 24" fill="none" xmlns="http://www.w3.org/2000/svg">
<path d="M10.3684 11L8.47368 11.8421C8.21053 11.9474 8 12.2105 8 12.5263C8 12.9474 8.31579 13.3158 8.73684 13.3158C9.05263 13.3158 9.31579 13.1579 9.47368 12.8947L10.4211 11.0526C10.4737 11.0526 10.4211 11 10.3684 11Z" fill="#CAC6E1" stroke="#827AB6" stroke-miterlimit="10" stroke-linecap="round" stroke-linejoin="round"/>
<path d="M6.01316 15.0206L4.32895 16.1785C4.06579 16.3364 3.96053 16.6522 4.01316 16.968C4.06579 17.3891 4.48684 17.7049 4.90789 17.5996C5.22368 17.547 5.43421 17.3364 5.53947 17.0733L6.11842 15.1259C6.06579 15.0206 6.01316 14.968 6.01316 15.0206Z" fill="#CAC6E1" stroke="#827AB6" stroke-miterlimit="10" stroke-linecap="round" stroke-linejoin="round"/>
<path d="M8.60216 9L6.60216 9.42105C6.28637 9.47368 6.07584 9.68421 6.02321 10C5.91795 10.4211 6.18111 10.8421 6.60216 10.9474C6.91795 11 7.18111 10.8947 7.39163 10.6842L8.70742 9.10526C8.65479 9.05263 8.65479 9 8.60216 9Z" fill="#CAC6E1" stroke="#827AB6" stroke-miterlimit="10" stroke-linecap="round" stroke-linejoin="round"/>
<path d="M3.36842 12L1.47368 12.7895C1.21053 12.8947 1 13.1579 1 13.4737C1 13.8947 1.31579 14.2632 1.73684 14.3158C2.05263 14.3158 2.31579 14.1579 2.47368 13.8947L3.42105 12.1053C3.42105 12.0526 3.42105 12 3.36842 12Z" fill="#CAC6E1" stroke="#827AB6" stroke-miterlimit="10" stroke-linecap="round" stroke-linejoin="round"/>
<path d="M13.1053 13.0218L11.3684 14.1271C11.1053 14.285 11 14.6007 11 14.8639C11.0526 15.285 11.4211 15.6007 11.8947 15.5481C12.2105 15.4955 12.4211 15.285 12.5263 15.0218L13.1579 13.0744C13.1579 13.0218 13.1579 12.9692 13.1053 13.0218Z" fill="#CAC6E1" stroke="#827AB6" stroke-miterlimit="10" stroke-linecap="round" stroke-linejoin="round"/>
<path d="M9.72551 17.0234L8.25182 18.4444C8.0413 18.655 7.93603 18.9708 8.0413 19.2339C8.19919 19.655 8.62024 19.8655 9.0413 19.7076C9.30445 19.6023 9.51498 19.3392 9.56761 19.076L9.77814 17.0234C9.83077 17.0234 9.77814 16.9708 9.72551 17.0234Z" fill="#CAC6E1" stroke="#827AB6" stroke-miterlimit="10" stroke-linecap="round" stroke-linejoin="round"/>
<path d="M15.7255 16.0234L14.2518 17.4444C14.0413 17.655 13.936 17.9708 14.0413 18.2339C14.1992 18.655 14.6202 18.8655 15.0413 18.7076C15.3045 18.6023 15.515 18.3392 15.5676 18.076L15.8308 16.0234C15.7781 16.0234 15.7255 15.9708 15.7255 16.0234Z" fill="#CAC6E1" stroke="#827AB6" stroke-miterlimit="10" stroke-linecap="round" stroke-linejoin="round"/>
<path d="M12.4283 20.0234L11.1652 21.655C10.9547 21.9181 10.9547 22.2339 11.1125 22.4971C11.3231 22.8655 11.7968 23.0234 12.1652 22.8129C12.4283 22.655 12.5862 22.3918 12.5862 22.076L12.5336 20.0234C12.5336 20.0234 12.481 19.9708 12.4283 20.0234Z" fill="#CAC6E1" stroke="#827AB6" stroke-miterlimit="10" stroke-linecap="round" stroke-linejoin="round"/>
<path d="M19.6422 5.87037C19.8001 5.71248 19.8001 5.50195 19.6422 5.34406L18.1685 3.87037C18.0106 3.71248 17.8001 3.71248 17.6422 3.87037C17.2211 4.29143 16.6422 4.55458 16.0632 4.55458H10.4316L19.1159 13.2388L19.0106 7.55458C19.0106 6.92301 19.2211 6.29143 19.6422 5.87037Z" fill="#CAC6E1"/>
<path d="M16.5895 5.55458C17.2737 5.50195 17.9053 5.18616 18.4316 4.65985C18.5369 4.55458 18.6422 4.50195 18.8001 4.50195L18.1685 3.87037C18.0106 3.71248 17.8001 3.71248 17.6422 3.87037C17.2211 4.29143 16.6422 4.55458 16.0632 4.55458H10.4316L11.9053 6.02827L16.5895 5.55458Z" fill="#CAC6E1"/>
<path d="M19.6422 5.87037C19.8001 5.71248 19.8001 5.50195 19.6422 5.34406L18.1685 3.87037C18.0106 3.71248 17.8001 3.71248 17.6422 3.87037C17.2211 4.29143 16.6422 4.55458 16.0632 4.55458H10.4316L19.1159 13.2388L19.0106 7.55458C19.0106 6.92301 19.2211 6.29143 19.6422 5.87037Z" stroke="#827AB6" stroke-miterlimit="10" stroke-linecap="round" stroke-linejoin="round"/>
<path d="M18.1684 14.4494L9.16838 5.44942C9.11575 5.39679 9.11575 5.2389 9.16838 5.18627L10.0105 4.34416C10.0631 4.29153 10.221 4.29153 10.2736 4.34416L19.2736 13.3442C19.3263 13.3968 19.3263 13.5547 19.2736 13.6073L18.4315 14.4494C18.3789 14.5021 18.221 14.5021 18.1684 14.4494Z" fill="#CAC6E1"/>
<path d="M12.6947 6.81795L10.2736 4.3969C10.221 4.34426 10.0631 4.34426 10.0105 4.3969L9.16838 5.239C9.11575 5.29163 9.11575 5.44953 9.16838 5.50216L11.5894 7.92321L12.6947 6.81795Z" fill="#CAC6E1"/>
<path d="M18.1684 14.4494L9.16838 5.44942C9.11575 5.39679 9.11575 5.2389 9.16838 5.18627L10.0105 4.34416C10.0631 4.29153 10.221 4.29153 10.2736 4.34416L19.2736 13.3442C19.3263 13.3968 19.3263 13.5547 19.2736 13.6073L18.4315 14.4494C18.3789 14.5021 18.221 14.5021 18.1684 14.4494Z" stroke="#827AB6" stroke-miterlimit="10" stroke-linecap="round" stroke-linejoin="round"/>
<path d="M16.9585 14.555L9.06373 6.66026C8.90584 6.50236 8.90584 6.29184 9.06373 6.13394L9.48479 5.71289L17.9058 14.1339L17.4848 14.555C17.3269 14.7129 17.0637 14.7129 16.9585 14.555Z" fill="#CAC6E1"/>
<path d="M9.95847 7.08141C9.85321 7.18668 9.80058 7.3972 9.90584 7.5551L9.06373 6.71299C8.90584 6.5551 8.90584 6.34457 9.06373 6.18668L9.48479 5.76562L10.4322 6.71299L9.95847 7.08141Z" fill="#CAC6E1"/>
<path d="M16.9585 14.555L9.06373 6.66026C8.90584 6.50236 8.90584 6.29184 9.06373 6.13394L9.48479 5.71289L17.9058 14.1339L17.4848 14.555C17.3269 14.7129 17.0637 14.7129 16.9585 14.555Z" stroke="#827AB6" stroke-miterlimit="10" stroke-linecap="round" stroke-linejoin="round"/>
<path d="M24.8017 2.34432V1.60747C24.8017 1.34432 24.5912 1.13379 24.328 1.13379H22.6964C21.6964 1.13379 20.7491 1.50221 20.0649 2.23905L18.2754 4.02853L19.4859 5.23905L21.2228 3.44958C21.6438 3.02853 22.1701 2.818 22.7491 2.818H24.2754C24.5912 2.818 24.8017 2.60747 24.8017 2.34432Z" fill="#CAC6E1"/>
<path d="M20.0649 3.02853C20.7491 2.34432 21.6964 1.92326 22.6964 1.92326H24.328C24.5912 1.92326 24.8017 2.13379 24.8017 2.34432V1.60747C24.8017 1.34432 24.5912 1.13379 24.328 1.13379H22.6964C21.6964 1.13379 20.7491 1.50221 20.0649 2.23905L18.2754 4.02853L18.6964 4.44958L20.0649 3.02853Z" fill="#CAC6E1"/>
<path d="M24.8017 2.34432V1.60747C24.8017 1.34432 24.5912 1.13379 24.328 1.13379H22.6964C21.6964 1.13379 20.7491 1.50221 20.0649 2.23905L18.2754 4.02853L19.4859 5.23905L21.2228 3.44958C21.6438 3.02853 22.1701 2.818 22.7491 2.818H24.2754C24.5912 2.818 24.8017 2.60747 24.8017 2.34432Z" stroke="#827AB6" stroke-miterlimit="10" stroke-linecap="round" stroke-linejoin="round"/>
</svg>
