<svg width="24" height="24" viewBox="0 0 24 24" fill="none" xmlns="http://www.w3.org/2000/svg">
<g clip-path="url(#clip0_6707_25815)">
<path d="M20 22V5.00001C20 3.34601 18.654 2.00001 17 2.00001H15.829C15.649 1.49001 15.332 1.03301 14.902 0.681005C14.205 0.109005 13.298 -0.114995 12.412 0.0590051L6.411 1.25901C5.014 1.53901 4 2.77701 4 4.20001V22H0V24H24V22H20ZM18 5.00001V22H16V4.00001H17C17.551 4.00001 18 4.44801 18 5.00001ZM6 4.20001C6 3.72501 6.338 3.31301 6.804 3.22001L12.804 2.02001C13.097 1.96301 13.402 2.03801 13.634 2.22801C13.867 2.41801 14 2.70101 14 3.00101V22H6V4.20001ZM12 12C12 12.828 11.328 13.5 10.5 13.5C9.672 13.5 9 12.828 9 12C9 11.172 9.672 10.5 10.5 10.5C11.328 10.5 12 11.172 12 12Z" fill="#E2E7EA"/>
</g>
<defs>
<clipPath id="clip0_6707_25815">
<rect width="24" height="24" fill="white"/>
</clipPath>
</defs>
</svg>
