<svg width="25" height="24" viewBox="0 0 25 24" fill="none" xmlns="http://www.w3.org/2000/svg">
<g clip-path="url(#clip0_6435_25206)">
<path d="M12.6266 24.008L11.9338 23.4105C10.9787 22.6058 2.63928 15.3591 2.63928 10.0583C2.63928 4.50839 7.11077 0.00927734 12.6266 0.00927734C18.1424 0.00927734 22.6139 4.50839 22.6139 10.0583C22.6139 15.3592 14.2745 22.6059 13.3234 23.4145L12.6266 24.008ZM12.6266 2.18217C8.30549 2.18709 4.80377 5.71045 4.79888 10.0582C4.79888 13.3883 9.92962 18.7081 12.6266 21.1429C15.3236 18.7071 20.4543 13.3843 20.4543 10.0582C20.4494 5.71045 16.9477 2.18714 12.6266 2.18217Z" fill="#827AB6"/>
<path d="M12.6266 14.0416C10.4402 14.0416 8.66772 12.2582 8.66772 10.0583C8.66772 7.85836 10.4402 6.07495 12.6266 6.07495C14.813 6.07495 16.5855 7.85836 16.5855 10.0583C16.5855 12.2582 14.8131 14.0416 12.6266 14.0416ZM12.6266 8.06658C11.5334 8.06658 10.6472 8.95828 10.6472 10.0582C10.6472 11.1582 11.5334 12.0499 12.6266 12.0499C13.7198 12.0499 14.6061 11.1582 14.6061 10.0582C14.6061 8.95828 13.7199 8.06658 12.6266 8.06658Z" fill="#827AB6"/>
</g>
<defs>
<clipPath id="clip0_6435_25206">
<rect width="23.8526" height="24" fill="white" transform="translate(0.742065)"/>
</clipPath>
</defs>
</svg>
