<svg width="24" height="24" viewBox="0 0 24 24" fill="none" xmlns="http://www.w3.org/2000/svg">
<path d="M22.849 7.68001L13.849 0.637015C13.321 0.223427 12.6697 -0.00131226 11.999 -0.00131226C11.3283 -0.00131226 10.677 0.223427 10.149 0.637015L1.14902 7.68001C0.789811 7.96003 0.499495 8.31859 0.300328 8.72819C0.101161 9.13779 -0.00156748 9.58756 1.80786e-05 10.043V24H24V10.043C24.0014 9.5874 23.8983 9.13752 23.6988 8.72791C23.4993 8.3183 23.2086 7.95983 22.849 7.68001ZM22 22H2.00002V10.043C1.99953 9.89105 2.03389 9.741 2.10046 9.6044C2.16703 9.46779 2.26404 9.34827 2.38402 9.25501L11.384 2.21201C11.5599 2.07448 11.7767 1.99976 12 1.99976C12.2233 1.99976 12.4401 2.07448 12.616 2.21201L21.616 9.25501C21.736 9.34827 21.833 9.46779 21.8996 9.6044C21.9661 9.741 22.0005 9.89105 22 10.043V22ZM12 8.00601C11.01 8.00583 10.0422 8.29954 9.21932 8.84993C8.39641 9.40033 7.75541 10.1826 7.37756 11.0977C6.99971 12.0128 6.90201 13.0194 7.09686 13.99C7.2917 14.9607 7.7703 15.8517 8.47202 16.55L12 20L15.536 16.542C16.2355 15.8427 16.7118 14.9517 16.9048 13.9817C17.0978 13.0117 16.9988 12.0062 16.6203 11.0925C16.2418 10.1787 15.6008 9.39776 14.7784 8.84837C13.9559 8.29897 12.9891 8.00583 12 8.00601ZM14.129 15.12L12 17.2L9.87802 15.128C9.45886 14.7088 9.1733 14.1747 9.05741 13.5933C8.94152 13.0119 9.00049 12.4092 9.22687 11.8613C9.45325 11.3134 9.83689 10.8448 10.3294 10.5148C10.8218 10.1847 11.4011 10.008 11.9939 10.0069C12.5867 10.0058 13.1666 10.1803 13.6603 10.5085C14.154 10.8367 14.5394 11.3038 14.7679 11.8509C14.9963 12.398 15.0575 13.0004 14.9438 13.5823C14.8301 14.1641 14.5466 14.6992 14.129 15.12ZM13 13C13 13.1978 12.9414 13.3911 12.8315 13.5556C12.7216 13.72 12.5654 13.8482 12.3827 13.9239C12.2 13.9996 11.9989 14.0194 11.8049 13.9808C11.6109 13.9422 11.4328 13.847 11.2929 13.7071C11.1531 13.5673 11.0578 13.3891 11.0192 13.1951C10.9806 13.0011 11.0005 12.8001 11.0761 12.6173C11.1518 12.4346 11.28 12.2784 11.4444 12.1685C11.6089 12.0587 11.8022 12 12 12C12.2652 12 12.5196 12.1054 12.7071 12.2929C12.8947 12.4804 13 12.7348 13 13Z" fill="#827AB6"/>
</svg>
